<?xml version="1.0" encoding="UTF-8"?>
<!DOCTYPE svg PUBLIC "-//W3C//DTD SVG 1.1//EN" "http://www.w3.org/Graphics/SVG/1.1/DTD/svg11.dtd">
<!-- Creator: CorelDRAW X8 -->
<svg xmlns="http://www.w3.org/2000/svg" xml:space="preserve" width="110mm" height="110mm" version="1.1" style="shape-rendering:geometricPrecision; text-rendering:geometricPrecision; image-rendering:optimizeQuality; fill-rule:evenodd; clip-rule:evenodd"
viewBox="0 0 11000 11000"
 xmlns:xlink="http://www.w3.org/1999/xlink">
 <defs>
  <style type="text/css">
   <![CDATA[
    .fil0 {fill:#C75248}
   ]]>
  </style>
 </defs>
 <g id="Layer_x0020_1">
  <metadata id="CorelCorpID_0Corel-Layer"/>
  <path class="fil0" d="M3777 5420c-469,0 -634,-199 -961,-227 0,523 505,905 1018,905l169 0c569,0 1075,-336 1075,-905 -327,77 -560,227 -962,227l-339 0zm3845 0c-468,0 -634,-199 -961,-227 14,511 496,905 1018,905l396 0c332,0 905,-469 905,-791 0,-198 -695,113 -1075,113l-283 0zm-5428 5089l1300 0 -193 -557 -1107 -9 0 566zm-226 -5542c0,-949 834,-1922 1696,-1922l339 0c924,0 1697,934 1697,1979l0 113c0,358 -170,419 -170,678l0 57c0,132 94,226 226,226l227 0c132,0 226,-94 226,-226l0 -57c0,-259 -170,-320 -170,-678l0 -339c0,-856 886,-1753 1697,-1753l113 0c960,0 1922,846 1922,1696l0 113c0,1077 -788,1923 -1866,1923l-169 0c-362,0 -796,-247 -1018,-396 -48,578 -531,1193 -792,1583 -591,-395 -591,-989 -905,-1583 -293,196 -647,396 -1131,396l-113 0c-879,0 -1809,-874 -1809,-1640l0 -170zm-622 509c0,1620 899,3029 1866,3676l48 35 686 -941c75,150 57,-46 57,171 0,455 -210,796 -395,1074 126,189 638,1018 848,1018l565 0c304,0 451,-203 509,-452l566 0c207,0 303,452 565,452l622 0c335,0 1018,-945 1018,-961 0,-234 -552,-640 -565,-1244 406,33 435,848 848,848 216,0 1066,-1143 1216,-1385 250,-401 593,-1389 593,-2008l0 -5146c-451,163 -870,848 -1866,848l-226 0c-751,0 -1420,-452 -2318,-452l-114 0c-841,0 -1706,452 -2148,452 -540,0 -1043,-58 -1415,-225 -295,-134 -828,-588 -960,-623l0 4863zm6891 5029l1647 4 0 -566 -1397 8 -250 554z"/>
 </g>
</svg>
